	; music by shockslayer

Music_Requiem:
	musicheader 3, 1, Music_Requiem_Ch1
	musicheader 1, 2, Music_Requiem_Ch2
	musicheader 1, 3, Music_Requiem_Ch3

Music_Requiem_Ch1:
	tempo $DC
	volume $77
	stereopanning $77
Music_Requiem_Ch1_loop:
	dutycycle 1
	vibrato $00, $15
	octave 3
	notetype $C, $93
	note D_, 2
	note A_, 2
	octave 4
	note D_, 4
	note __, 4
	octave 3
	note D_, 2
	note A#, 2
	octave 4
	note E_, 4
	note __, 4
	octave 3
	note D_, 2
	octave 4
	note C#, 2
	note E_, 4
	note __, 4
	octave 3
	note D_, 2
	note A_, 2
	octave 4
	note D_, 4
	note __, 4
	octave 3
	note D_, 2
	note A_, 2
	octave 4
	note F_, 4
	note __, 4
	octave 3
	note D_, 2
	note A#, 2
	octave 4
	note G_, 4
	note __, 4
	octave 3
	note D_, 2
	octave 4
	note C#, 2
	note E_, 4
	note __, 4
	octave 3
	note D_, 2
	note A_, 2
	octave 4
	note F_, 4
	note __, 4
	octave 3
	note A#, 4
	octave 4
	note D_, 4
	note __, 4
	octave 3
	note A#, 2
	octave 4
	note D_, 2
	note E_, 4
	note __, 2
	note D_, 2
	octave 3
	note A_, 2
	octave 4
	note C_, 2
	note E_, 4
	note C_, 2
	note E_, 2
	octave 3
	note A_, 2
	octave 4
	note C_, 2
	note __, 2
	note C_, 2
	note E_, 2
	note C_, 2
	octave 3
	note G_, 2
	note A#, 2
	octave 4
	note D_, 2
	octave 3
	note A#, 2
	octave 4
	note D_, 2
	octave 3
	note A#, 2
	note G_, 2
	note A#, 2
	note __, 2
	note A#, 2
	octave 4
	note D_, 2
	octave 3
	note A#, 2
	note E_, 2
	note G#, 2
	note B_, 2
	note G#, 2
	note B_, 2
	note G#, 2
	octave 2
	note A_, 2
	octave 3
	note C#, 2
	note E_, 2
	note G_, 2
	note __, 16
	octave 4
	note D_, 2
	octave 3
	note A_, 2
	octave 4
	note D_, 2
	octave 3
	note A_, 2
	octave 4
	note E_, 2
	octave 3
	note A_, 2
	octave 4
	note D_, 2
	octave 3
	note A_, 2
	octave 4
	note D_, 2
	octave 3
	note A_, 2
	octave 4
	note E_, 2
	octave 3
	note A_, 2
	octave 4
	note D_, 2
	octave 3
	note A_, 2
	octave 4
	note D_, 2
	octave 3
	note A_, 2
	octave 4
	note E_, 2
	octave 3
	note A_, 2
	octave 4
	note D_, 2
	octave 3
	note A_, 2
	octave 4
	note D_, 2
	octave 3
	note A_, 2
	octave 4
	note E_, 2
	octave 3
	note A_, 2
	octave 4
	note F_, 2
	octave 3
	note A#, 2
	octave 4
	note F_, 2
	octave 3
	note A#, 2
	octave 4
	note F_, 2
	octave 3
	note A#, 2
	octave 4
	note F_, 2
	octave 3
	note A_, 2
	octave 4
	note F_, 2
	octave 3
	note A_, 2
	octave 4
	note F_, 2
	octave 3
	note A_, 2
	octave 4
	note F_, 2
	octave 3
	note A_, 2
	octave 4
	note E_, 2
	octave 3
	note A_, 2
	note __, 2
	note A_, 2
	octave 4
	note C#, 2
	octave 3
	note A_, 2
	note A_, 2
	note A_, 2
	octave 4
	note C#, 2
	octave 3
	note A_, 2
	loopchannel 0, Music_Requiem_Ch1_loop

Music_Requiem_Ch2:
Music_Requiem_Ch2_loop:
	dutycycle 3
	vibrato $00, $15
	octave 4
	notetype $C, $97
	note F_, 8
	note A_, 4
	note G_, 8
	note F_, 4
	note E_, 4
	note E_, 4
	note G_, 4
	note F_, 8
	note D_, 4
	note A_, 8
	note A_, 4
	note A#, 8
	note A_, 4
	note G_, 4
	note G_, 4
	note A#, 4
	note A_, 8
	note C_, 4
	note A_, 8
	note G_, 4
	note F_, 8
	note A_, 2
	note A_, 2
	note G_, 8
	note F_, 4
	note E_, 6
	note E_, 2
	note G_, 4
	note F_, 8
	note E_, 4
	note D_, 6
	note D_, 2
	note F_, 4
	note E_, 8
	note D_, 4
	note C#, 8
	octave 3
	note A_, 2
	octave 4
	note C#, 2
	note G_, 2
	note E_, 2
	note G_, 2
	note A_, 2
	octave 5
	note C#, 4
	octave 4
	note F_, 4
	note F_, 4
	note G_, 4
	note F_, 4
	note F_, 4
	note G_, 4
	note F_, 4
	note F_, 4
	note G_, 4
	note F_, 4
	note F_, 4
	note G_, 4
	note A_, 4
	note A_, 4
	note A_, 4
	note A_, 4
	note G_, 4
	note A_, 4
	note A_, 4
	note G_, 4
	note F_, 2
	note F_, 2
	note E_, 4
	note C#, 4
	note E_, 4
	loopchannel 0, Music_Requiem_Ch2_loop

Music_Requiem_Ch3:
Music_Requiem_Ch3_loop:
	notetype $C, $20
	note __, 16
	note __, 16
	note __, 16
	note __, 16
	note __, 16
	note __, 16
	intensity $20
	vibrato $02, $15
	octave 5
	note D_, 16
	note E_, 4
	note F_, 4
	note E_, 16
	note F_, 4
	note G_, 4
	note F_, 8
	note G_, 4
	note A_, 6
	note A#, 2
	octave 6
	note C_, 2
	note D_, 2
	note E_, 9
	note D_, 1
	note E_, 1
	note D_, 1
	note C#, 12
	octave 5
	note A_, 12
	octave 4
	notetype $9, $20
	note D_, 2
	notetype $6, $20
	note __, 1
	notetype $9, $20
	note D_, 1
	notetype $F, $20
	note __, 1
	notetype $9, $20
	note D_, 2
	notetype $6, $20
	note __, 1
	notetype $9, $20
	note D_, 1
	note __, 7
	note D_, 2
	notetype $6, $20
	note __, 1
	notetype $9, $20
	note D_, 1
	notetype $F, $20
	note __, 1
	notetype $9, $20
	note D_, 2
	notetype $6, $20
	note __, 1
	notetype $9, $20
	note D_, 1
	note __, 7
	note C_, 2
	notetype $6, $20
	note __, 1
	notetype $9, $20
	note C_, 1
	notetype $F, $20
	note __, 1
	notetype $9, $20
	note C_, 2
	notetype $6, $20
	note __, 1
	notetype $9, $20
	note C_, 1
	note __, 7
	note C_, 2
	notetype $6, $20
	note __, 1
	notetype $9, $20
	note C_, 1
	notetype $F, $20
	note __, 1
	notetype $9, $20
	note C_, 2
	notetype $6, $20
	note __, 1
	notetype $9, $20
	note C_, 1
	note __, 7
	octave 3
	note A#, 2
	notetype $6, $20
	note __, 1
	notetype $9, $20
	note A#, 1
	notetype $F, $20
	note __, 1
	notetype $9, $20
	note A#, 2
	notetype $6, $20
	note __, 1
	notetype $9, $20
	note A#, 1
	note __, 7
	note A#, 2
	notetype $6, $20
	note __, 1
	notetype $9, $20
	note A#, 1
	notetype $F, $20
	note __, 1
	notetype $9, $20
	note A#, 2
	notetype $6, $20
	note __, 1
	notetype $9, $20
	note A#, 1
	note __, 7
	note A_, 2
	notetype $6, $20
	note __, 1
	notetype $9, $20
	note A_, 1
	notetype $F, $20
	note __, 1
	notetype $9, $20
	note A_, 2
	notetype $6, $20
	note __, 1
	notetype $9, $20
	note A_, 1
	note __, 7
	note A_, 2
	notetype $6, $20
	note __, 1
	notetype $9, $20
	note A_, 1
	notetype $F, $20
	note __, 1
	notetype $9, $20
	note A_, 2
	notetype $6, $20
	note __, 1
	notetype $9, $20
	note A_, 1
	note __, 7
	loopchannel 0, Music_Requiem_Ch3_loop

